# xmcd CD database file
#
# Track frame offsets:
#	150
#	19117
#	37380
#	41230
#	56705
#	77705
#	96845
#	111605
#	128060
#	142830
#	155655
#	169932
#	180082
#	196455
#	206070
#	214410
#	229827
#	246545
#	269257
#	286622
#	301185
#
# Disc length: 4238 seconds
#
# Revision: 1
# Processed by: cddbd v1.4PL0 Copyright (c) Steve Scherf et al.
# Submitted via: CDex 1.51
#
DISCID=3b108c15
DTITLE=Mississippi John Hurt - The Best Of Mississippi John Hurt Ain't No Tellin'
DYEAR=1997
DGENRE=Folk
TTITLE0=Rich Woman Blues
TTITLE1=Trouble I had All My Days
TTITLE2=Chicken Blues
TTITLE3=Coffe Blues
TTITLE4=Monday Morning Blues
TTITLE5=Frankie and Albert
TTITLE6=Talking Casey
TTITLE7=Here I Am, Oh Lord Send Me
TTITLE8=Hard Times In the Old Town
TTITLE9=Spike Drivers Blues
TTITLE10=Candy Man
TTITLE11=My Creole Belle
TTITLE12=Make Me A Pallet On Your Floor
TTITLE13=Shake That Thing
TTITLE14=I'm Satisfied
TTITLE15=Salty Dog
TTITLE16=Nobody's Business
TTITLE17=The Angels Laid Him Away
TTITLE18=Casey Jones
TTITLE19=Baby What's Wrong With You
TTITLE20=Lonesome Blues
EXTD=YEAR: 1997
EXTT0=
EXTT1=
EXTT2=
EXTT3=
EXTT4=
EXTT5=
EXTT6=
EXTT7=
EXTT8=
EXTT9=
EXTT10=
EXTT11=
EXTT12=
EXTT13=
EXTT14=
EXTT15=
EXTT16=
EXTT17=
EXTT18=
EXTT19=
EXTT20=
PLAYORDER=
